<svg id="Capa_1" data-name="Capa 1" xmlns="http://www.w3.org/2000/svg" viewBox="0 0 519.84 585.37"><defs><style>.cls-1{fill:#886dae;}</style></defs><path class="cls-1" d="M475.56,748a22,22,0,0,1-11.75-3.52Q344.46,670.74,225.31,596.7A19.59,19.59,0,0,1,216.05,580q.21-69.37,0-141.18-.06-17,14.35-25.67,27.24-16.37,160.19-99.43a3.34,3.34,0,0,0,1.25-4.28c-31.47-65.26,6.55-146.92,84.48-146.82s115.73,81.89,84.1,147a3.32,3.32,0,0,0,1.25,4.27q132.74,83.46,159.92,99.87,14.4,8.71,14.3,25.72-.43,71.81-.38,141.18a19.62,19.62,0,0,1-9.32,16.68Q606.84,671.11,487.26,744.49a21.92,21.92,0,0,1-11.7,3.52m-1.25-421.3c34.89,1,64.05-27.62,65.13-64h0c1.07-36.38-26.33-66.71-61.22-67.75s-64.05,27.62-65.13,64,26.33,66.72,61.22,67.75m1.58,264.79c-10,0-69.21-40.45-137.13-82.69-15.05-9.32-18.73-21.93-1.46-32.28q14-8.38,76.9-48.52a5.21,5.21,0,0,0,2.55-4.66V337.73a2.12,2.12,0,0,0-2.14-2.09,2.2,2.2,0,0,0-1.06.3L248.7,438a5,5,0,0,0-2.49,4.49V571a5.36,5.36,0,0,0,2.55,4.55q118.82,73.71,225.56,139.72a9,9,0,0,0,1.57.06,9.15,9.15,0,0,0,1.57-.06Q584.2,649.23,703,575.52a5.36,5.36,0,0,0,2.55-4.55V442.46a5,5,0,0,0-2.49-4.49l-164.85-102a2.12,2.12,0,0,0-2.9.73,2.2,2.2,0,0,0-.3,1.06v85.62a5.19,5.19,0,0,0,2.55,4.65q62.88,40.14,76.9,48.53c17.28,10.34,13.59,23-1.46,32.33C545.1,551.05,485.9,591.5,475.89,591.5m.05-39.32a3.07,3.07,0,0,0,1.73-.54l92.23-58.27a2.06,2.06,0,0,0,.6-2.87,2.24,2.24,0,0,0-.65-.65L507.4,451a12.52,12.52,0,0,1-6.22-11.27V360.91c0-2-1-2.87-3-2.66a195.32,195.32,0,0,1-22.25,1.57,195.32,195.32,0,0,1-22.26-1.57c-2-.21-3,.67-3,2.66l0,78.79A12.53,12.53,0,0,1,444.42,451L382,489.9a2.12,2.12,0,0,0-.64,2.9,1.9,1.9,0,0,0,.64.62q4.27,2.71,92.23,58.22a3.07,3.07,0,0,0,1.73.54" transform="translate(-216.05 -162.64)"/></svg>