<?xml version="1.0" encoding="utf-8"?>
<!-- Generator: Adobe Illustrator 25.2.1, SVG Export Plug-In . SVG Version: 6.00 Build 0)  -->
<svg version="1.1" id="Capa_1" xmlns="http://www.w3.org/2000/svg" xmlns:xlink="http://www.w3.org/1999/xlink" x="0px" y="0px"
	 viewBox="0 0 35.9 32" style="enable-background:new 0 0 35.9 32;" xml:space="preserve">
<style type="text/css">
	.st0{fill:#876DAD;}
</style>
<g transform="translate(-38.23303311781274, -15.751584373659753) scale(1.0417729724642948)">
	<path class="st0" d="M54,45.8c-0.2,0-0.4-0.1-0.6-0.2c-4.2-2.6-8.3-5.2-12.5-7.7c-0.3-0.2-0.5-0.5-0.5-0.9c0-2.4,0-4.9,0-7.4
		c0-0.6,0.2-1,0.8-1.3c1-0.6,3.8-2.3,8.4-5.2c0.1,0,0.1-0.1,0.1-0.2c-1.6-3.4,0.3-7.7,4.4-7.7s6.1,4.3,4.4,7.7c0,0.1,0,0.2,0.1,0.2
		c4.6,2.9,7.4,4.7,8.4,5.2c0.5,0.3,0.8,0.8,0.7,1.3c0,2.5,0,5,0,7.4c0,0.4-0.2,0.7-0.5,0.9c-4.2,2.6-8.3,5.1-12.5,7.7
		C54.4,45.8,54.2,45.8,54,45.8 M53.9,23.8c1.8,0.1,3.4-1.4,3.4-3.4c0,0,0,0,0,0c0.1-1.9-1.4-3.5-3.2-3.6c-1.8-0.1-3.4,1.4-3.4,3.4
		C50.6,22.1,52.1,23.7,53.9,23.8 M54,37.6c-0.5,0-3.6-2.1-7.2-4.3c-0.8-0.5-1-1.1-0.1-1.7c0.5-0.3,1.8-1.1,4-2.5
		c0.1-0.1,0.1-0.1,0.1-0.2v-4.5c0-0.1-0.1-0.1-0.1-0.1c0,0,0,0-0.1,0l-8.6,5.3c-0.1,0.1-0.1,0.1-0.1,0.2v6.7c0,0.1,0.1,0.2,0.1,0.2
		c4.2,2.6,8.1,5,11.8,7.3c0,0,0,0,0.1,0s0.1,0,0.1,0c3.7-2.3,7.7-4.7,11.8-7.3c0.1-0.1,0.1-0.1,0.1-0.2v-6.7c0-0.1,0-0.2-0.1-0.2
		l-8.6-5.3c-0.1,0-0.1,0-0.2,0c0,0,0,0,0,0.1v4.5c0,0.1,0,0.2,0.1,0.2c2.2,1.4,3.5,2.3,4,2.5c0.9,0.5,0.7,1.2-0.1,1.7
		C57.6,35.5,54.5,37.6,54,37.6 M54,35.6C54,35.6,54,35.6,54,35.6l4.9-3.1c0.1,0,0.1-0.1,0-0.2c0,0,0,0,0,0l-3.3-2
		c-0.2-0.1-0.3-0.3-0.3-0.6v-4.1c0-0.1-0.1-0.2-0.2-0.1c-0.5,0.1-0.9,0.1-1.2,0.1c-0.3,0-0.7,0-1.2-0.1c-0.1,0-0.2,0-0.2,0.1l0,4.1
		c0,0.3-0.1,0.5-0.3,0.6l-3.3,2c-0.1,0-0.1,0.1,0,0.2c0,0,0,0,0,0C49.2,32.6,50.8,33.6,54,35.6C53.9,35.6,53.9,35.6,54,35.6"/>
</g>
</svg>
